<svg xmlns="http://www.w3.org/2000/svg" viewBox="0 0 32 32" fill="none">
  <rect width="32" height="32" rx="8" fill="#02182b"/>
  <g transform="translate(4,4)">
    <path d="M12 4C9.5 4 7.5 5.5 7 7.5C5.5 7.8 4 9.2 4 11C4 12.2 4.6 13.3 5.5 14C5.2 14.6 5 15.3 5 16C5 18.2 6.8 20 9 20L12 20L12 4Z" fill="#09ffd3" opacity="0.9"/>
    <path d="M12 4C14.5 4 16.5 5.5 17 7.5C18.5 7.8 20 9.2 20 11C20 12.2 19.4 13.3 18.5 14C18.8 14.6 19 15.3 19 16C19 18.2 17.2 20 15 20L12 20L12 4Z" fill="#09ffd3" opacity="0.7"/>
    <line x1="12" y1="4" x2="12" y2="20" stroke="#02182b" stroke-width="1"/>
    <path d="M8 10 Q10 9 9 12" stroke="#02182b" stroke-width="0.8" fill="none" stroke-linecap="round"/>
    <path d="M7 14 Q9 13 8.5 16" stroke="#02182b" stroke-width="0.8" fill="none" stroke-linecap="round"/>
    <path d="M16 10 Q14 9 15 12" stroke="#02182b" stroke-width="0.8" fill="none" stroke-linecap="round"/>
    <path d="M17 14 Q15 13 15.5 16" stroke="#02182b" stroke-width="0.8" fill="none" stroke-linecap="round"/>
    <rect x="10.5" y="20" width="3" height="2" rx="1" fill="#09ffd3" opacity="0.6"/>
  </g>
</svg>
